<?xml version="1.0" encoding="UTF-8"?>
<svg width="690px" height="436px" viewBox="0 0 690 436" version="1.1" xmlns="http://www.w3.org/2000/svg" xmlns:xlink="http://www.w3.org/1999/xlink">
    <!-- Generator: Sketch 53.2 (72643) - https://sketchapp.com -->
    <title>Combined Shape</title>
    <desc>Created with Sketch.</desc>
    <g id="Page-1" stroke="none" stroke-width="1" fill="none" fill-rule="evenodd">
        <g id="Desktop-HD" transform="translate(-735.000000, -15.000000)" fill="#000000">
            <path d="M1231.91525,210.040934 L1231.91525,183.476814 L1230.03305,186.071923 L1219.99467,144.550176 L1219.99467,160.095336 L1231.91525,210.040934 Z M1219.99467,205.072434 L1219.99467,229.217803 L1210.58368,229.217803 L1210.58368,165.641676 L1204.49132,140.115512 L1204.49132,140.699158 L1196.72813,140.699158 L1184.88209,189.792123 L1183.15976,187.412868 L1183.15976,229.268028 L1173.74877,229.268028 L1173.74877,43.1232854 L1180.75324,43.1232854 L1176.73197,26.45816 L1184.88209,15.1994039 L1196.69128,64.1396272 L1204.49132,64.1396272 L1204.49132,95.138452 L1210.58368,120.664601 L1210.58368,43.4302155 L1219.99467,43.4302155 L1219.99467,118.599084 L1223.43933,113.849704 L1231.91525,148.908641 L1231.91525,59.1622289 L1241.32624,59.1622289 L1241.32624,171.551181 L1262.13773,84.3538606 L1260.05086,87.2684327 L1245.4862,26.244343 L1253.53728,15 L1266.11387,67.6943362 L1278.48612,15.8563078 L1286.53716,27.10081 L1241.32624,216.528332 L1241.32624,229.217803 L1238.29762,229.217803 L1237.39492,233 L1238.29762,236.782197 L1241.32624,236.782197 L1241.32624,249.471668 L1286.53716,438.89919 L1278.48612,450.143692 L1266.11387,398.305664 L1253.53728,451 L1245.4862,439.755657 L1260.05086,378.731567 L1262.13773,381.646139 L1241.32624,294.448819 L1241.32624,406.837771 L1231.91525,406.837771 L1231.91525,317.091359 L1223.43933,352.150296 L1219.99467,347.400916 L1219.99467,422.569785 L1210.58368,422.569785 L1210.58368,345.335399 L1204.49132,370.861548 L1204.49132,401.860373 L1196.69128,401.860373 L1184.88209,450.800596 L1176.73197,439.54184 L1180.75324,422.876715 L1173.74877,422.876715 L1173.74877,236.731972 L1183.15976,236.731972 L1183.15976,278.587132 L1184.88209,276.207877 L1196.72813,325.300842 L1204.49132,325.300842 L1204.49132,325.884488 L1210.58368,300.358324 L1210.58368,236.782197 L1219.99467,236.782197 L1219.99467,260.927566 L1226.66018,233 L1219.99467,205.072434 Z M1231.91525,255.959066 L1219.99467,305.904664 L1219.99467,321.449824 L1230.03305,279.928077 L1231.91525,282.523186 L1231.91525,255.959066 Z M1195.08034,366.787317 L1194.81683,366.419298 L1195.08034,365.315246 L1195.08034,343.589582 L1191.47581,348.568934 L1183.15976,314.105131 L1183.15976,412.903532 L1191.47581,378.439766 L1195.08034,383.419122 L1195.08034,366.787317 Z M861.739282,200.412974 L868.50113,209.86262 L862.982354,233 L868.50113,256.13738 L861.739282,265.587026 L903.103927,438.89919 L895.052889,450.143692 L882.680645,398.305664 L870.104051,451 L862.052966,439.755657 L876.617628,378.731567 L878.704496,381.646139 L853.107737,274.399178 L849.934895,287.701265 L852.220349,287.701265 L852.220349,401.839061 L844.506728,401.839061 L832.828379,450.800338 L824.768568,439.536739 L828.745282,422.864444 L821.818419,422.864444 L821.818419,367.675894 L819.434641,377.663594 L816.036583,372.917775 L816.036583,407.114458 L806.978808,407.114458 L796.449125,450.800596 L788.308064,439.54184 L792.324867,422.876715 L785.328175,422.876715 L785.328175,394.118833 L771.743375,450.800596 L763.64833,439.54184 L778.255995,378.59228 L770.967422,378.59228 L770.967422,236.731972 L780.31482,236.731972 L780.31482,378.59228 L778.402206,378.59228 L785.328175,388.22502 L785.328175,236.731972 L794.728708,236.731972 L794.728708,321.562363 L804.755943,279.960795 L806.63605,282.560893 L806.63605,236.731972 L816.036583,236.731972 L816.036583,346.923942 L821.818419,322.698832 L821.818419,236.63962 L831.125132,236.63962 L831.125132,283.704962 L843.226946,233 L831.125132,182.295038 L831.125132,229.36038 L821.818419,229.36038 L821.818419,143.301168 L816.036583,119.076058 L816.036583,229.268028 L806.63605,229.268028 L806.63605,183.439107 L804.755943,186.039205 L794.728708,144.437637 L794.728708,229.268028 L785.328175,229.268028 L785.328175,77.7749804 L778.402206,87.4077201 L780.31482,87.4077201 L780.31482,229.268028 L770.967422,229.268028 L770.967422,87.4077201 L778.255995,87.4077201 L763.64833,26.4581601 L771.743375,15.1994039 L785.328175,71.8811667 L785.328175,43.1232854 L792.324867,43.1232854 L788.308064,26.45816 L796.449125,15.1994039 L806.978808,58.8855418 L816.036583,58.8855418 L816.036583,93.0822248 L819.434641,88.3364055 L821.818419,98.3241062 L821.818419,43.1355559 L828.745282,43.1355559 L824.768568,26.4632614 L832.828379,15.1996615 L844.506728,64.1609393 L852.220349,64.1609393 L852.220349,178.298735 L849.934895,178.298735 L853.107737,191.600822 L878.704496,84.3538606 L876.617628,87.2684327 L862.052966,26.244343 L870.104051,15 L882.680645,67.6943362 L895.052889,15.8563078 L903.103927,27.10081 L861.739282,200.412974 Z M1135.39465,210.472804 L1137.3661,202.207546 L1137.3661,43.1232854 L1144.36279,43.1232854 L1140.34599,26.45816 L1148.48705,15.1994039 L1159.01673,58.8855418 L1168.07451,58.8855418 L1168.07451,229.268028 L1158.67397,229.268028 L1158.67397,183.439107 L1156.79387,186.039205 L1146.76663,144.437637 L1146.76663,229.268028 L1141.65804,229.268028 L1140.76788,233 L1141.65804,236.731972 L1146.76663,236.731972 L1146.76663,321.562363 L1156.79387,279.960795 L1158.67397,282.560893 L1158.67397,236.731972 L1168.07451,236.731972 L1168.07451,407.114458 L1159.01673,407.114458 L1148.48705,450.800596 L1140.34599,439.54184 L1144.36279,422.876715 L1137.3661,422.876715 L1137.3661,263.792454 L1135.39465,255.527196 L1127.72043,287.701265 L1130.00588,287.701265 L1130.00588,401.839061 L1122.29226,401.839061 L1110.61391,450.800338 L1102.5541,439.536739 L1106.53081,422.864444 L1099.60395,422.864444 L1099.60395,236.63962 L1108.91066,236.63962 L1108.91066,321.506506 L1130.02142,233 L1108.91066,144.493494 L1108.91066,229.36038 L1099.60395,229.36038 L1099.60395,43.1355559 L1106.53081,43.1355559 L1102.5541,26.4632614 L1110.61391,15.1996615 L1122.29226,64.1609393 L1130.00588,64.1609393 L1130.00588,178.298735 L1127.72043,178.298735 L1135.39465,210.472804 Z M1195.08034,100.684754 L1194.81683,99.5807018 L1195.08034,99.2126831 L1195.08034,82.5808778 L1191.47581,87.5602341 L1183.15976,53.0964676 L1183.15976,151.894869 L1191.47581,117.431066 L1195.08034,122.410418 L1195.08034,100.684754 Z M1022.77022,210.472804 L1025.60238,198.599022 L1026.73502,200.181881 L1026.73502,43.1232854 L1033.73171,43.1232854 L1029.71491,26.45816 L1037.85597,15.1994039 L1048.38565,58.8855418 L1057.44342,58.8855418 L1057.44342,229.268028 L1048.04289,229.268028 L1048.04289,183.439107 L1046.16279,186.039205 L1036.13555,144.437637 L1036.13555,229.268028 L1029.03361,229.268028 L1028.14345,233 L1029.03361,236.731972 L1036.13555,236.731972 L1036.13555,321.562363 L1046.16279,279.960795 L1048.04289,282.560893 L1048.04289,236.731972 L1057.44342,236.731972 L1057.44342,407.114458 L1048.38565,407.114458 L1037.85597,450.800596 L1029.71491,439.54184 L1033.73171,422.876715 L1026.73502,422.876715 L1026.73502,265.818119 L1025.60238,267.400978 L1022.77022,255.527196 L1015.09599,287.701265 L1017.38145,287.701265 L1017.38145,401.839061 L1009.66782,401.839061 L997.989476,450.800338 L989.929664,439.536739 L993.906379,422.864444 L986.979515,422.864444 L986.979515,236.63962 L996.286229,236.63962 L996.286229,321.506506 L1017.39698,233 L996.286229,144.493494 L996.286229,229.36038 L986.979515,229.36038 L986.979515,43.1355559 L993.906379,43.1355559 L989.929664,26.4632614 L997.989476,15.1996615 L1009.66782,64.1609393 L1017.38145,64.1609393 L1017.38145,178.298735 L1015.09599,178.298735 L1022.77022,210.472804 Z M1320.22799,233 L1331.94092,281.381274 L1323.78132,292.615918 L1313.73129,251.103438 L1313.73129,412.985969 L1322.05699,378.596005 L1330.21655,389.830603 L1315.45562,450.801878 L1307.29606,439.567232 L1311.32199,422.937794 L1304.3094,422.937794 L1304.3094,237.191672 L1310.3633,237.191672 L1310.00486,235.711074 L1309.02034,234.355537 L1309.34852,233 L1309.02034,231.644463 L1310.00486,230.288926 L1310.3633,228.808328 L1304.3094,228.808328 L1304.3094,43.0622063 L1311.32199,43.0622063 L1307.29606,26.4327677 L1315.45562,15.1981217 L1330.21655,76.169397 L1322.05699,87.4039953 L1313.73129,53.0140313 L1313.73129,214.896562 L1323.78132,173.384082 L1331.94092,184.618726 L1320.22799,233 Z M1078.49786,233 L1083.92324,255.46093 L1083.92324,237.940648 L1093.32378,237.940648 L1093.32378,346.542211 L1083.92324,346.542211 L1083.92324,290.021388 L1082.04314,292.615918 L1072.0159,251.103438 L1072.0159,412.985969 L1080.32272,378.596005 L1088.46378,389.830603 L1073.73632,450.801878 L1065.59526,439.567232 L1069.61206,422.937794 L1062.61537,422.937794 L1062.61537,237.191672 L1068.65555,237.191672 L1068.29791,235.711074 L1067.31563,234.355537 L1067.64306,233 L1067.31563,231.644463 L1068.29791,230.288926 L1068.65555,228.808328 L1062.61537,228.808328 L1062.61537,43.0622063 L1069.61206,43.0622063 L1065.59526,26.4327677 L1073.73632,15.1981217 L1088.46378,76.169397 L1080.32272,87.4039953 L1072.0159,53.0140313 L1072.0159,214.896562 L1082.04314,173.384082 L1083.92324,175.978612 L1083.92324,119.457789 L1093.32378,119.457789 L1093.32378,228.059352 L1083.92324,228.059352 L1083.92324,210.53907 L1078.49786,233 Z M1359.21076,229.538126 L1358.3774,233 L1359.21076,236.461874 L1364.9181,236.461874 L1364.9181,407.058739 L1355.86032,407.058739 L1345.33069,450.79964 L1337.18958,439.52665 L1341.20631,422.840827 L1334.20969,422.840827 L1334.20969,236.461874 L1343.61022,236.461874 L1343.61022,249.252308 L1347.5226,233 L1343.61022,216.747692 L1343.61022,229.538126 L1334.20969,229.538126 L1334.20969,43.1591726 L1341.20631,43.1591726 L1337.18958,26.4733497 L1345.33069,15.2003604 L1355.86032,58.9412614 L1364.9181,58.9412614 L1364.9181,229.538126 L1359.21076,229.538126 Z M1355.51756,255.798234 L1353.63746,258.401604 L1352.95,255.545841 L1347.05105,280.0505 L1343.61022,275.286003 L1343.61022,412.854828 L1351.91699,378.3479 L1355.51756,383.333588 L1355.51756,255.798234 Z M1352.95,210.454159 L1353.63746,207.598396 L1355.51756,210.201766 L1355.51756,82.6664117 L1351.91699,87.6521001 L1343.61022,53.1451723 L1343.61022,190.713997 L1347.05105,185.9495 L1352.95,210.454159 Z M739.033278,229.817774 L735,229.817774 L735,43.1963285 L742.004472,43.1963285 L737.983203,26.4885263 L746.133316,15.2009373 L758.123623,65.0189975 L765.742554,65.0189975 L765.742554,207.242599 L756.865392,207.242599 L750.666053,233 L756.865392,258.757401 L765.742554,258.757401 L765.742554,400.981002 L758.123623,400.981002 L746.133316,450.799063 L737.983203,439.511474 L742.004472,422.803671 L735,422.803671 L735,236.182226 L739.033278,236.182226 L739.799183,233 L739.033278,229.817774 Z M898.843809,233 L909.047373,275.75468 L900.986191,287.013924 L891.480171,247.182075 L886.403264,240.091037 L888.095566,233 L886.403264,225.908963 L891.480171,218.817925 L900.986191,178.986076 L909.047373,190.24532 L898.843809,233 Z M1272.36066,233 L1283.81819,281.008994 L1275.75701,292.268238 L1262.4891,236.673447 L1261.17408,234.836723 L1261.61242,233 L1261.17408,231.163277 L1262.4891,229.326553 L1275.75701,173.731762 L1283.81819,184.991006 L1272.36066,233 Z M1415.90776,80.5261725 L1410.86161,87.5602341 L1396.2503,26.4581601 L1404.32716,15.1994039 L1415.90776,63.6275988 L1415.90776,60.4592249 L1425,60.4592249 L1425,230.173665 L1415.90776,230.173665 L1415.90776,80.5261725 Z M1108.91066,118.481328 L1112.31716,113.720772 L1120.69917,148.862216 L1120.69917,82.6101235 L1117.13458,87.591622 L1108.91066,53.113029 L1108.91066,118.481328 Z M996.286229,118.481328 L999.692723,113.720772 L1008.07473,148.862216 L1008.07473,82.6101235 L1004.51014,87.591622 L996.286229,53.113029 L996.286229,118.481328 Z M831.125132,118.481328 L834.531626,113.720772 L842.913636,148.862216 L842.913636,82.6101235 L839.349046,87.591622 L831.125132,53.113029 L831.125132,118.481328 Z M1379.09185,43.1232854 L1375.07058,26.45816 L1383.22069,15.1994039 L1393.76208,58.8855418 L1402.82993,58.8855418 L1402.82993,229.268028 L1393.41894,229.268028 L1393.41894,82.5808778 L1389.81442,87.5602341 L1381.49836,53.0964676 L1381.49836,229.268028 L1372.08737,229.268028 L1372.08737,43.1232854 L1379.09185,43.1232854 Z M1146.76663,118.436657 L1150.20746,113.678147 L1158.67397,148.804481 L1158.67397,82.5808778 L1155.07345,87.5602341 L1146.76663,53.0964676 L1146.76663,118.436657 Z M1036.13555,118.436657 L1039.57638,113.678147 L1048.04289,148.804481 L1048.04289,82.5808778 L1044.44237,87.5602341 L1036.13555,53.0964676 L1036.13555,118.436657 Z M959.889805,144.437637 L959.889805,229.268028 L950.489272,229.268028 L950.489272,80.1905605 L945.231403,87.5602341 L937.035368,53.0964679 L937.035368,229.268028 L927.760206,229.268028 L927.760206,56.4866217 L920.334128,87.7127482 L912.30167,76.4540754 L926.832689,15.352092 L932.728287,23.615702 L938.732841,15.1994039 L950.489272,64.6344336 L950.489272,43.1232854 L957.485964,43.1232854 L953.46916,26.45816 L961.610222,15.1994039 L972.139904,58.8855418 L981.19768,58.8855418 L981.19768,229.268028 L971.797147,229.268028 L971.797147,183.439107 L969.91704,186.039205 L959.889805,144.437637 Z M959.889805,118.436657 L963.330639,113.678147 L971.797147,148.804481 L971.797147,82.5808778 L968.196623,87.5602341 L959.889805,53.0964676 L959.889805,118.436657 Z M794.728708,118.436657 L798.169542,113.678147 L806.63605,148.804481 L806.63605,82.5808778 L803.035526,87.5602341 L794.728708,53.0964676 L794.728708,118.436657 Z M930.938223,43.1232854 L934.663586,43.1232854 L932.800905,35.2908397 L930.938223,43.1232854 Z M744.410986,213.838592 L752.880873,178.647378 L756.331568,183.426431 L756.331568,82.7549689 L752.727041,87.747077 L744.410986,53.1950516 L744.410986,213.838592 Z M1415.90776,385.473828 L1415.90776,235.826335 L1425,235.826335 L1425,405.540775 L1415.90776,405.540775 L1415.90776,402.372401 L1404.32716,450.800596 L1396.2503,439.54184 L1410.86161,378.439766 L1415.90776,385.473828 Z M1108.91066,347.518672 L1108.91066,412.886971 L1117.13458,378.408378 L1120.69917,383.389876 L1120.69917,317.137784 L1112.31716,352.279228 L1108.91066,347.518672 Z M996.286229,347.518672 L996.286229,412.886971 L1004.51014,378.408378 L1008.07473,383.389876 L1008.07473,317.137784 L999.692723,352.279228 L996.286229,347.518672 Z M831.125132,347.518672 L831.125132,412.886971 L839.349046,378.408378 L842.913636,383.389876 L842.913636,317.137784 L834.531626,352.279228 L831.125132,347.518672 Z M1379.09185,422.876715 L1372.08737,422.876715 L1372.08737,236.731972 L1381.49836,236.731972 L1381.49836,412.903532 L1389.81442,378.439766 L1393.41894,383.419122 L1393.41894,236.731972 L1402.82993,236.731972 L1402.82993,407.114458 L1393.76208,407.114458 L1383.22069,450.800596 L1375.07058,439.54184 L1379.09185,422.876715 Z M1146.76663,347.563343 L1146.76663,412.903532 L1155.07345,378.439766 L1158.67397,383.419122 L1158.67397,317.195519 L1150.20746,352.321853 L1146.76663,347.563343 Z M1036.13555,347.563343 L1036.13555,412.903532 L1044.44237,378.439766 L1048.04289,383.419122 L1048.04289,317.195519 L1039.57638,352.321853 L1036.13555,347.563343 Z M959.889805,321.562363 L969.91704,279.960795 L971.797147,282.560893 L971.797147,236.731972 L981.19768,236.731972 L981.19768,407.114458 L972.139904,407.114458 L961.610222,450.800596 L953.46916,439.54184 L957.485964,422.876715 L950.489272,422.876715 L950.489272,401.365566 L938.732841,450.800596 L932.728287,442.384298 L926.832689,450.647908 L912.30167,389.545925 L920.334128,378.287252 L927.760206,409.513378 L927.760206,236.731972 L937.035368,236.731972 L937.035368,412.903532 L945.231403,378.439766 L950.489272,385.809439 L950.489272,236.731972 L959.889805,236.731972 L959.889805,321.562363 Z M959.889805,347.563343 L959.889805,412.903532 L968.196623,378.439766 L971.797147,383.419122 L971.797147,317.195519 L963.330639,352.321853 L959.889805,347.563343 Z M794.728708,347.563343 L794.728708,412.903532 L803.035526,378.439766 L806.63605,383.419122 L806.63605,317.195519 L798.169542,352.321853 L794.728708,347.563343 Z M930.938223,422.876715 L932.800905,430.70916 L934.663586,422.876715 L930.938223,422.876715 Z M744.410986,252.161408 L744.410986,412.804948 L752.727041,378.252923 L756.331568,383.245031 L756.331568,282.573569 L752.880873,287.352622 L744.410986,252.161408 Z" id="Combined-Shape"></path>
        </g>
    </g>
</svg>